<svg width="131" height="90" viewBox="0 0 131 90" fill="none" xmlns="http://www.w3.org/2000/svg">
<path d="M98.2353 34.0085C97.5504 36.7853 95.5485 36.5706 92.9615 37.0921L92.388 39.4169L90.5641 39.378L90.0636 37.4049C88.6637 36.6759 87.5022 37.1156 87.0964 37.4265L86.5493 39.0728L84.4595 38.9683L83.9908 36.866C82.7505 36.1764 79.4149 36.2625 77.9021 36.3918L77.2089 38.3445L75.3476 37.8854L75.275 35.6067L71.0206 34.5573L70.3059 36.0252L68.6441 35.6153C68.6862 34.5296 68.4927 33.7511 68.3907 33.4976C65.8077 31.1615 54.2693 28.804 48.823 27.9173L47.3618 30.9823L45.5005 30.5232L45.4993 27.0975C41.7767 26.1793 40.5875 26.6167 40.4582 26.9502L38.986 28.9163L36.8588 28.3916C37.0837 27.6706 37.5068 26.2222 37.4004 26.1959C37.2941 26.1697 34.7784 24.8184 33.5339 24.1461C33.1806 22.3139 32.9512 20.0896 32.9428 17.9031M98.2353 34.0085L97.2826 31.5812L96.7612 30.836L74.0827 17.5692L71.8752 15.6546L68.6997 13.0901L65.5506 9.84707L60.8584 5.98716L58.1055 8.01062C54.8733 11.4608 48.727 12.411 45.3657 10.4858C42.0043 8.56052 41.2804 6.46374 41.3386 5.65601C40.936 5.19135 39.8438 4.05417 38.6949 3.22272C37.7365 4.63049 35.4945 8.07829 34.1936 10.6073C33.2817 12.3803 32.9321 15.1108 32.9428 17.9031M98.2353 34.0085C93.9842 34.5891 81.7353 34.2081 66.7485 28.0395C63.8329 25.8872 55.8606 21.9143 47.2967 23.2414C46.177 23.655 41.7387 23.1664 32.9428 17.9031" stroke="black"/>
<line x1="49" y1="38.5" x2="33" y2="38.5" stroke="black"/>
<line x1="34" y1="30.5" x2="20" y2="30.5" stroke="black"/>
<line x1="41" y1="34.5" x2="27" y2="34.5" stroke="black"/>
<path d="M1.10938 78V70.1094H3.82812V72.0312C5.13021 74.3958 6.83333 75.5781 8.9375 75.5781C10.0104 75.5781 10.9167 75.25 11.6562 74.5938C12.3958 73.9375 12.7656 73.0781 12.7656 72.0156C12.7656 70.9844 12.4635 70.2448 11.8594 69.7969C11.2552 69.3385 10.1146 68.8854 8.4375 68.4375C6.48958 67.9167 5.04688 67.4271 4.10938 66.9688C3.17188 66.5 2.42188 65.8385 1.85938 64.9844C1.30729 64.1198 1.03125 63.099 1.03125 61.9219C1.03125 60.099 1.63542 58.6458 2.84375 57.5625C4.0625 56.4688 5.58854 55.9219 7.42188 55.9219C9.16146 55.9219 10.776 56.4844 12.2656 57.6094V56.1562H14.9219V62.75H12.2656V61.2344C11.151 59.5573 9.61458 58.7188 7.65625 58.7188C6.46875 58.7188 5.55729 58.9948 4.92188 59.5469C4.28646 60.0885 3.96875 60.7396 3.96875 61.5C3.96875 62.0833 4.13021 62.599 4.45312 63.0469C4.77604 63.4844 5.1875 63.8073 5.6875 64.0156C6.1875 64.224 7.17188 64.5156 8.64062 64.8906C10.5573 65.3906 11.9479 65.8594 12.8125 66.2969C13.6771 66.724 14.4219 67.4427 15.0469 68.4531C15.6719 69.4635 15.9844 70.625 15.9844 71.9375C15.9844 73.7917 15.3281 75.3229 14.0156 76.5312C12.7135 77.7396 11.099 78.3438 9.17188 78.3438C7.19271 78.3438 5.41146 77.6302 3.82812 76.2031V78H1.10938ZM20.3281 75.2812V58.9844H17.8594V56.2656H26.1719V58.9844H23.6094V65.2031H33.0625V58.9844H30.5156V56.2656H38.8281V58.9844H36.3438V75.2812H38.8281V78H30.5156V75.2812H33.0625V67.9219H23.6094V75.2812H26.1719V78H17.8594V75.2812H20.3281ZM41.25 67.0312C41.25 63.875 42.2812 61.2344 44.3438 59.1094C46.4062 56.9844 49.0938 55.9219 52.4062 55.9219C55.75 55.9219 58.474 56.9844 60.5781 59.1094C62.6823 61.2344 63.7344 63.8958 63.7344 67.0938C63.7344 70.3542 62.6615 73.0469 60.5156 75.1719C58.3802 77.2865 55.6615 78.3438 52.3594 78.3438C50.2552 78.3438 48.3177 77.8438 46.5469 76.8438C44.7865 75.8333 43.4635 74.4323 42.5781 72.6406C41.6927 70.8385 41.25 68.9688 41.25 67.0312ZM44.8281 67.0469C44.8281 69.4323 45.526 71.4323 46.9219 73.0469C48.3177 74.6615 50.151 75.4688 52.4219 75.4688C54.6719 75.4688 56.5208 74.6458 57.9688 73C59.4167 71.3438 60.1406 69.3698 60.1406 67.0781C60.1406 64.7656 59.401 62.8125 57.9219 61.2188C56.4531 59.6146 54.6042 58.8125 52.375 58.8125C50.1562 58.8125 48.3438 59.599 46.9375 61.1719C45.5312 62.7448 44.8281 64.7031 44.8281 67.0469ZM69 75.2812V58.9844H66.1875V56.2656H84.25V62.8125H81.5625V58.9844H72.2812V65.4531H80.3594V68.1719H72.2812V75.2812H81.5625V71.3281H84.25V78H66.1875V75.2812H69Z" fill="black"/>
<path d="M95.9473 79V74.8691H99.5508L105.51 66.4492L99.5508 58.6797H96.1934V54.5488H108.762V58.4512H106.424L110.062 63.0039L113.367 58.4512H111.152V54.5488H121.998V58.6797H118.605L112.805 66.7129L119.203 74.8691H122.719V79H109.746V75.0273H112.189L108.357 70.0176L104.719 75.0273H107.232V79H95.9473Z" fill="black"/>
</svg>
