<svg width="218" height="47" viewBox="0 0 218 47" fill="none" xmlns="http://www.w3.org/2000/svg">
<path d="M78.2353 34.0084C77.5504 36.7853 75.5485 36.5706 72.9615 37.0921L72.388 39.4169L70.5641 39.378L70.0636 37.4048C68.6637 36.6759 67.5022 37.1156 67.0964 37.4265L66.5493 39.0728L64.4595 38.9683L63.9908 36.866C62.7505 36.1764 59.4149 36.2625 57.9021 36.3918L57.2089 38.3445L55.3476 37.8854L55.275 35.6067L51.0206 34.5573L50.3059 36.0252L48.6441 35.6153C48.6862 34.5296 48.4927 33.7511 48.3907 33.4976C45.8077 31.1615 34.2693 28.804 28.823 27.9173L27.3618 30.9823L25.5005 30.5232L25.4993 27.0975C21.7767 26.1793 20.5875 26.6167 20.4582 26.9502L18.986 28.9163L16.8588 28.3916C17.0837 27.6706 17.5068 26.2221 17.4004 26.1959C17.2941 26.1697 14.7784 24.8184 13.5339 24.1461C13.1806 22.3139 12.9512 20.0896 12.9428 17.9031M78.2353 34.0084L77.2826 31.5812L76.7612 30.836L54.0827 17.5692L51.8752 15.6546L48.6997 13.0901L45.5506 9.84707L40.8584 5.98716L38.1055 8.01062C34.8733 11.4608 28.727 12.411 25.3657 10.4858C22.0043 8.56052 21.2804 6.46374 21.3386 5.65601C20.936 5.19135 19.8438 4.05416 18.6949 3.22272C17.7365 4.63049 15.4945 8.07829 14.1936 10.6073C13.2817 12.3803 12.9321 15.1108 12.9428 17.9031M78.2353 34.0084C73.9842 34.5891 61.7353 34.2081 46.7485 28.0395C43.8329 25.8872 35.8606 21.9143 27.2967 23.2414C26.177 23.655 21.7387 23.1664 12.9428 17.9031" stroke="black"/>
<line x1="29" y1="38.5" x2="13" y2="38.5" stroke="black"/>
<line x1="14" y1="30.5" y2="30.5" stroke="black"/>
<line x1="21" y1="34.5" x2="7" y2="34.5" stroke="black"/>
<path d="M88.1094 36V28.1094H90.8281V30.0312C92.1302 32.3958 93.8333 33.5781 95.9375 33.5781C97.0104 33.5781 97.9167 33.25 98.6562 32.5937C99.3958 31.9375 99.7656 31.0781 99.7656 30.0156C99.7656 28.9844 99.4635 28.2448 98.8594 27.7969C98.2552 27.3385 97.1146 26.8854 95.4375 26.4375C93.4896 25.9167 92.0469 25.4271 91.1094 24.9687C90.1719 24.5 89.4219 23.8385 88.8594 22.9844C88.3073 22.1198 88.0312 21.099 88.0312 19.9219C88.0312 18.099 88.6354 16.6458 89.8438 15.5625C91.0625 14.4687 92.5885 13.9219 94.4219 13.9219C96.1615 13.9219 97.776 14.4844 99.2656 15.6094V14.1562H101.922V20.75H99.2656V19.2344C98.151 17.5573 96.6146 16.7187 94.6562 16.7187C93.4688 16.7187 92.5573 16.9948 91.9219 17.5469C91.2865 18.0885 90.9688 18.7396 90.9688 19.5C90.9688 20.0833 91.1302 20.599 91.4531 21.0469C91.776 21.4844 92.1875 21.8073 92.6875 22.0156C93.1875 22.224 94.1719 22.5156 95.6406 22.8906C97.5573 23.3906 98.9479 23.8594 99.8125 24.2969C100.677 24.724 101.422 25.4427 102.047 26.4531C102.672 27.4635 102.984 28.625 102.984 29.9375C102.984 31.7917 102.328 33.3229 101.016 34.5312C99.7135 35.7396 98.099 36.3437 96.1719 36.3437C94.1927 36.3437 92.4115 35.6302 90.8281 34.2031V36H88.1094ZM107.328 33.2812V16.9844H104.859V14.2656H113.172V16.9844H110.609V23.2031H120.062V16.9844H117.516V14.2656H125.828V16.9844H123.344V33.2812H125.828V36H117.516V33.2812H120.062V25.9219H110.609V33.2812H113.172V36H104.859V33.2812H107.328ZM128.25 25.0312C128.25 21.875 129.281 19.2344 131.344 17.1094C133.406 14.9844 136.094 13.9219 139.406 13.9219C142.75 13.9219 145.474 14.9844 147.578 17.1094C149.682 19.2344 150.734 21.8958 150.734 25.0937C150.734 28.3542 149.661 31.0469 147.516 33.1719C145.38 35.2865 142.661 36.3437 139.359 36.3437C137.255 36.3437 135.318 35.8437 133.547 34.8437C131.786 33.8333 130.464 32.4323 129.578 30.6406C128.693 28.8385 128.25 26.9687 128.25 25.0312ZM131.828 25.0469C131.828 27.4323 132.526 29.4323 133.922 31.0469C135.318 32.6615 137.151 33.4687 139.422 33.4687C141.672 33.4687 143.521 32.6458 144.969 31C146.417 29.3437 147.141 27.3698 147.141 25.0781C147.141 22.7656 146.401 20.8125 144.922 19.2187C143.453 17.6146 141.604 16.8125 139.375 16.8125C137.156 16.8125 135.344 17.599 133.938 19.1719C132.531 20.7448 131.828 22.7031 131.828 25.0469ZM156 33.2812V16.9844H153.188V14.2656H171.25V20.8125H168.562V16.9844H159.281V23.4531H167.359V26.1719H159.281V33.2812H168.562V29.3281H171.25V36H153.188V33.2812H156Z" fill="black"/>
<path d="M182.947 36V31.8691H186.551L192.51 23.4492L186.551 15.6797H183.193V11.5488H195.762V15.4512H193.424L197.062 20.0039L200.367 15.4512H198.152V11.5488H208.998V15.6797H205.605L199.805 23.7129L206.203 31.8691H209.719V36H196.746V32.0273H199.189L195.357 27.0176L191.719 32.0273H194.232V36H182.947Z" fill="black"/>
</svg>
